<?xml version='1.0' encoding='iso-8859-1'?>
<!DOCTYPE svg PUBLIC '-//W3C//DTD SVG 1.1//EN' 'http://www.w3.org/Graphics/SVG/1.1/DTD/svg11.dtd'>
<svg version="1.1" xmlns="http://www.w3.org/2000/svg" viewBox="0 0 297 297" xmlns:xlink="http://www.w3.org/1999/xlink" enable-background="new 0 0 297 297">
  <g>
    <path d="m162.161,226.761v-70.773c0-19.153-12.207-36.09-30.378-42.147-0.066-0.022-12.972-3.982-12.972-3.982-4.414-1.354-9.114,0.986-10.695,5.322l-14.976,41.094c0,0-4.763-21.087-4.875-21.393l8.312-14.397c1.367-2.368 1.367-5.286 0-7.654-1.367-2.368-3.894-3.827-6.628-3.827h-17.736c-2.735,0-5.261,1.459-6.628,3.827-1.367,2.368-1.367,5.286 0,7.654l8.312,14.397c-0.112,0.306-4.875,21.392-4.875,21.392l-14.977-41.094c-1.581-4.337-6.283-6.679-10.695-5.322 0,0-12.907,3.961-12.973,3.982-18.17,6.057-30.377,22.995-30.377,42.148v70.773c0,4.791 3.884,8.674 8.674,8.674h144.812c4.792,0 8.675-3.883 8.675-8.674zm-144.812-8.675v-62.099c1.06581e-14-11.64 7.399-21.939 18.421-25.657l4.795-1.471 32.366,88.804c0.053,0.143 0.108,0.284 0.167,0.423h-55.749zm127.463,0h-55.748c0.06-0.139 0.115-0.28 0.167-0.423l32.366-88.804 4.793,1.47c11.023,3.717 18.422,14.016 18.422,25.658v62.099z"/>
    <path d="m81.081,96.656c24.746,0 44.877-20.133 44.877-44.878s-20.131-44.877-44.877-44.877-44.878,20.131-44.878,44.877 20.132,44.878 44.878,44.878zm0-72.406c15.179,0 27.528,12.349 27.528,27.528s-12.348,27.529-27.528,27.529-27.529-12.35-27.529-27.529 12.35-27.528 27.529-27.528z"/>
    <path d="m283.078,95.96l12.465-18.698c1.775-2.662 1.94-6.084 0.431-8.905-1.51-2.82-4.449-4.581-7.648-4.581h-36.884l1.418-4.255c0.882-2.646 0.439-5.554-1.192-7.815-1.63-2.262-4.249-3.603-7.037-3.603h-62.693c-4.791,0-8.674,3.884-8.674,8.674v47.019 137.847c-17.766,0.886-54.856,5.023-54.856,24.109 0,23.664 57.028,24.347 63.531,24.347s63.53-0.684 63.53-24.347c0-19.086-37.09-23.223-54.855-24.109v-129.172h28.209l-1.419,4.256c-0.882,2.646-0.439,5.554 1.192,7.815 1.63,2.262 4.249,3.603 7.037,3.603h62.693c3.199,0 6.138-1.761 7.648-4.581 1.51-2.82 1.344-6.243-0.431-8.905l-12.465-18.699zm-57.219,169.792c-6.175,3.08-21.415,6.998-43.921,6.998-22.504,0-37.746-3.919-43.922-6.998 5.344-2.666 17.49-5.955 35.247-6.793v1.569c0,4.791 3.884,8.674 8.674,8.674s8.674-3.884 8.674-8.674v-1.569c17.759,0.838 29.904,4.128 35.248,6.793zm-35.246-200.301h41.983l-9.89,29.67h-32.093v-29.67zm74.822,35.32l6.682,10.024h-34.45l9.89-29.671h24.559l-6.682,10.024c-1.941,2.914-1.941,6.709 0.001,9.623z"/>
  </g>
</svg>
