<?xml version="1.0" encoding="iso-8859-1"?>
<!-- Generator: Adobe Illustrator 18.1.1, SVG Export Plug-In . SVG Version: 6.00 Build 0)  -->
<svg version="1.1" id="Capa_1" xmlns="http://www.w3.org/2000/svg" xmlns:xlink="http://www.w3.org/1999/xlink" x="0px" y="0px"
	 viewBox="0 0 282.54 282.54" style="enable-background:new 0 0 282.54 282.54;" xml:space="preserve">
<g>
	<g>
		<path style="fill:#010002;" d="M278.518,233.12c-19.368-26.988-33.749-56.345-44.346-87.707c-0.125-2.285-0.525-4.684-1.354-7.208
			c-2.739-8.425-5.096-16.94-7.19-25.514c5.686,4.487,11.14,9.308,16.397,14.476c14.207,13.968,36.058-7.858,21.839-21.845
			c-15.09-14.846-31.988-27.615-50.623-37.621c-1.712-2.291-4.356-4.04-8.055-4.821c-4.941-2.267-10.532-3.198-15.675-2.476
			c-30.729-4.278-61.578-5.215-92.558-1.313c-19.488,2.458-19.726,33.379,0,30.89c23.617-2.977,47.276-3.282,70.833-1.17
			c0.066,1.42,0.179,2.858,0.412,4.29c3.133,19.703,7.566,39.059,13.706,58.052c0,38.82,0,77.629,0,116.449
			c0,19.917,30.885,19.917,30.885,0c0-30.348,0-60.683,0-91.019c10.221,25.443,22.961,49.704,39.053,72.128
			C263.345,264.738,290.16,249.344,278.518,233.12z"/>
		<circle style="fill:#010002;" cx="193.562" cy="27.143" r="27.143"/>
		<path style="fill:#010002;" d="M43.621,69.072c-1.665-0.185-3.33-0.34-4.988-0.459c-4.171-0.304-8.33-0.465-12.495-0.453
			c-4.165-0.006-8.33,0.155-12.495,0.459c-4.165,0.298-8.33,0.746-12.489,1.593c4.159,0.853,8.324,1.295,12.489,1.599
			c4.171,0.304,8.33,0.459,12.495,0.459c4.159,0.006,8.324-0.155,12.495-0.453c1.85-0.131,3.693-0.304,5.543-0.519l2.942,3.443
			h12.238v-9.046H47.111C47.111,65.695,43.621,69.072,43.621,69.072z"/>
	</g>
</g>
<g>
</g>
<g>
</g>
<g>
</g>
<g>
</g>
<g>
</g>
<g>
</g>
<g>
</g>
<g>
</g>
<g>
</g>
<g>
</g>
<g>
</g>
<g>
</g>
<g>
</g>
<g>
</g>
<g>
</g>
</svg>
